<svg width="266" height="100" viewBox="0 0 266 100" fill="none" xmlns="http://www.w3.org/2000/svg">
<path d="M241.231 67.4829C238.593 67.4829 237.273 66.1009 237.273 63.3369V41.3506C237.273 38.5866 238.593 37.2046 241.231 37.2046C243.869 37.2046 245.188 38.5866 245.188 41.3506V63.3369C245.188 66.1009 243.869 67.4829 241.231 67.4829ZM241.168 32.6816C239.828 32.6816 238.676 32.2 237.713 31.2368C236.792 30.2736 236.331 29.1219 236.331 27.7818C236.331 26.4417 236.792 25.311 237.713 24.3896C238.676 23.4264 239.828 22.9448 241.168 22.9448C242.508 22.9448 243.639 23.4264 244.56 24.3896C245.523 25.311 246.005 26.4417 246.005 27.7818C246.005 29.1219 245.523 30.2736 244.56 31.2368C243.639 32.2 242.508 32.6816 241.168 32.6816Z" fill="#EFEFEF"/>
<path d="M218.126 67.4829C215.487 67.4829 214.168 66.1009 214.168 63.3369V41.3505C214.168 38.5865 215.55 37.2045 218.314 37.2045C219.193 37.2045 219.989 37.4348 220.701 37.8955C221.413 38.3143 221.769 39.1309 221.769 40.3454V41.2877C222.523 39.8219 223.674 38.6493 225.224 37.7699C226.773 36.8904 228.407 36.4507 230.124 36.4507C231.464 36.4507 232.49 36.8695 233.202 37.707C233.914 38.5027 234.27 39.5288 234.27 40.7851C234.27 41.9577 233.956 42.8372 233.328 43.4235C232.699 43.9679 232.029 44.1983 231.317 44.1145C230.982 44.0726 230.605 44.0517 230.187 44.0517C229.81 44.0098 229.391 43.9889 228.93 43.9889C227.004 43.9889 225.371 44.617 224.03 45.8734C222.732 47.0879 222.083 48.8887 222.083 51.2758V63.3369C222.083 66.1009 220.764 67.4829 218.126 67.4829Z" fill="#EFEFEF"/>
<path d="M198.326 68.1739C195.52 68.1739 192.987 67.5247 190.725 66.2265C188.506 64.9283 186.747 63.0856 185.449 60.6985C184.192 58.3114 183.564 55.5265 183.564 52.3437C183.564 49.119 184.192 46.3341 185.449 43.9889C186.747 41.6018 188.506 39.7591 190.725 38.4609C192.987 37.1207 195.52 36.4507 198.326 36.4507C201.802 36.4507 204.797 37.4139 207.309 39.3403C208.44 40.1779 208.943 41.1202 208.817 42.1671C208.733 43.2141 208.189 44.0936 207.184 44.8055C206.179 45.5174 205.299 45.8315 204.545 45.7478C203.833 45.664 202.891 45.2452 201.718 44.4914C200.755 43.9051 199.624 43.612 198.326 43.612C196.316 43.612 194.683 44.3658 193.426 45.8734C192.212 47.3392 191.605 49.4959 191.605 52.3437C191.605 55.1496 192.212 57.3063 193.426 58.814C194.683 60.2797 196.316 61.0126 198.326 61.0126C199.583 61.0126 200.671 60.7613 201.593 60.2588C202.682 59.5887 203.624 59.1699 204.42 59.0024C205.215 58.793 206.116 59.0443 207.121 59.7562C208.126 60.51 208.691 61.3895 208.817 62.3946C208.984 63.3997 208.545 64.321 207.498 65.1586C204.985 67.1688 201.928 68.1739 198.326 68.1739Z" fill="#EFEFEF"/>
<path d="M168.995 68.1109C167.237 68.1109 165.52 67.9015 163.844 67.4827C162.211 67.1058 160.662 66.4567 159.196 65.5353C158.023 64.7815 157.395 63.923 157.311 62.9598C157.228 61.9547 157.583 61.0124 158.379 60.133C159.175 59.2954 159.992 58.8975 160.829 58.9394C161.709 58.9394 162.735 59.2745 163.907 59.9445C165.54 60.824 167.383 61.2637 169.435 61.2637C171.027 61.2637 172.136 61.0752 172.765 60.6983C173.393 60.2795 173.707 59.5257 173.707 58.4369C173.707 57.9762 173.539 57.5784 173.204 57.2433C172.911 56.8664 172.262 56.5314 171.257 56.2382C170.294 55.9032 168.828 55.5472 166.86 55.1703C163.803 54.584 161.436 53.5789 159.761 52.1551C158.128 50.7312 157.311 48.5954 157.311 45.7476C157.311 43.8631 157.814 42.2298 158.819 40.8478C159.824 39.4239 161.185 38.3351 162.902 37.5812C164.661 36.7855 166.629 36.3877 168.807 36.3877C171.78 36.3877 174.461 36.9321 176.848 38.021C178.104 38.6492 178.816 39.4448 178.984 40.4081C179.193 41.3713 178.942 42.3135 178.23 43.2349C177.518 44.1562 176.722 44.6378 175.843 44.6797C175.005 44.6797 173.979 44.4494 172.765 43.9887C172.136 43.7374 171.508 43.5699 170.88 43.4862C170.252 43.3605 169.603 43.2977 168.933 43.2977C167.551 43.2977 166.608 43.528 166.106 43.9887C165.603 44.4075 165.352 44.91 165.352 45.4963C165.352 45.9151 165.478 46.292 165.729 46.6271C165.98 46.9621 166.525 47.2971 167.362 47.6322C168.2 47.9253 169.498 48.2813 171.257 48.7001C174.733 49.4958 177.35 50.7102 179.109 52.3435C180.91 53.9349 181.81 56.0707 181.81 58.751C181.81 61.8919 180.596 64.2371 178.167 65.7866C175.78 67.3361 172.723 68.1109 168.995 68.1109Z" fill="#EFEFEF"/>
<path d="M137.182 68.174C134.041 68.174 131.466 67.1689 129.455 65.1587C127.487 63.1485 126.503 60.1751 126.503 56.2385V41.3506C126.503 38.5866 127.822 37.2046 130.46 37.2046C133.099 37.2046 134.418 38.5866 134.418 41.3506V54.354C134.418 56.5317 134.858 58.1859 135.737 59.3166C136.617 60.4473 137.768 61.0127 139.192 61.0127C140.784 61.0127 142.082 60.4473 143.087 59.3166C144.134 58.144 144.657 56.3223 144.657 53.8514V41.3506C144.657 38.5866 145.977 37.2046 148.615 37.2046C151.253 37.2046 152.572 38.5866 152.572 41.3506V63.337C152.572 66.101 151.4 67.483 149.055 67.483C146.709 67.483 145.474 66.9176 145.348 65.7869L145.097 64.0908C144.301 65.1377 143.234 66.08 141.893 66.9176C140.595 67.7552 139.025 68.174 137.182 68.174Z" fill="#EFEFEF"/>
<path d="M110.867 68.1109C109.108 68.1109 107.391 67.9015 105.715 67.4827C104.082 67.1058 102.533 66.4567 101.067 65.5353C99.8943 64.7815 99.2661 63.923 99.1824 62.9598C99.0986 61.9547 99.4546 61.0124 100.25 60.133C101.046 59.2954 101.863 58.8975 102.7 58.9394C103.58 58.9394 104.606 59.2745 105.778 59.9445C107.412 60.824 109.254 61.2637 111.306 61.2637C112.898 61.2637 114.007 61.0752 114.636 60.6983C115.264 60.2795 115.578 59.5257 115.578 58.4369C115.578 57.9762 115.41 57.5784 115.075 57.2433C114.782 56.8664 114.133 56.5314 113.128 56.2382C112.165 55.9032 110.699 55.5472 108.731 55.1703C105.674 54.584 103.307 53.5789 101.632 52.1551C99.999 50.7312 99.1824 48.5954 99.1824 45.7476C99.1824 43.8631 99.6849 42.2298 100.69 40.8478C101.695 39.4239 103.056 38.3351 104.773 37.5812C106.532 36.7855 108.5 36.3877 110.678 36.3877C113.651 36.3877 116.332 36.9321 118.719 38.021C119.975 38.6492 120.687 39.4448 120.855 40.4081C121.064 41.3713 120.813 42.3135 120.101 43.2349C119.389 44.1562 118.593 44.6378 117.714 44.6797C116.876 44.6797 115.85 44.4494 114.636 43.9887C114.007 43.7374 113.379 43.5699 112.751 43.4862C112.123 43.3605 111.474 43.2977 110.804 43.2977C109.422 43.2977 108.479 43.528 107.977 43.9887C107.474 44.4075 107.223 44.91 107.223 45.4963C107.223 45.9151 107.349 46.292 107.6 46.6271C107.851 46.9621 108.396 47.2971 109.233 47.6322C110.071 47.9253 111.369 48.2813 113.128 48.7001C116.604 49.4958 119.221 50.7102 120.98 52.3435C122.781 53.9349 123.681 56.0707 123.681 58.751C123.681 61.8919 122.467 64.2371 120.038 65.7866C117.651 67.3361 114.594 68.1109 110.867 68.1109Z" fill="#EFEFEF"/>
<path d="M55.5954 74.2943C68.9698 74.2943 79.8119 63.4522 79.8119 50.0778C79.8119 36.7034 68.9698 25.8613 55.5954 25.8613C42.221 25.8613 31.3789 36.7034 31.3789 50.0778C31.3789 63.4522 42.221 74.2943 55.5954 74.2943Z" fill="#F8D248"/>
<path d="M24.1138 44.3721L23.1904 55.6528L29.6366 66.6286L50.0202 67.1513L53.5046 60.3567L60.9961 53.0395L68.3133 51.82L69.3586 51.6457L71.275 48.5098L69.3586 45.7223L65.7 42.4121H55.7695L24.1138 44.3721Z" fill="#FBFFFF"/>
<path d="M24.5982 46.3791C24.2079 48.5917 24.2323 50.827 24.5982 53.0361C25.0634 55.8584 26.0233 58.5013 27.7568 60.8184C28.7272 62.1164 29.6697 63.4387 30.6976 64.6896C30.9624 65.0119 31.4955 65.2767 31.9137 65.2872C37.412 65.4265 42.9104 65.5189 48.4088 65.6147C49.7102 65.6374 49.8809 65.437 50.1091 64.1269C50.2851 63.1216 50.4175 62.0728 50.813 61.1477C52.158 58.0031 54.2765 55.4438 56.9333 53.2852C59.7888 50.9663 62.9979 50.0674 66.6269 50.5099C67.2558 50.5865 67.9057 50.5918 68.5346 50.5186C69.2524 50.435 69.4492 49.874 69.5381 49.2189C69.8064 47.2502 68.3447 45.8774 66.9945 45.1178C64.6356 43.7902 62.0954 44.1143 59.5693 44.4453C59.1389 44.501 58.7121 44.5882 58.28 44.6335C56.8601 44.7798 55.435 44.8948 54.0204 45.076C54.3113 43.5533 54.6284 42.0393 55.0134 40.5515C55.2765 40.5567 55.489 40.5602 55.6998 40.5445C57.5396 40.4034 59.3794 40.2449 61.2191 40.1037C64.6216 39.8424 67.775 40.4156 70.5312 42.6334C73.5434 45.0585 74.5504 48.8827 73.1863 52.0221C72.4545 53.7068 71.1357 54.7748 69.1426 54.6807C67.9266 54.6232 66.7105 54.5152 65.4962 54.5291C64.6408 54.5396 63.747 54.5849 62.9439 54.841C60.74 55.5466 58.9438 56.9037 57.4577 58.6599C55.7399 60.6913 54.4368 62.9265 54.3897 65.6774C54.3253 69.444 54.3165 73.2107 54.28 76.9756C54.266 78.4477 53.4298 79.9164 51.752 79.8223C51.3478 79.7997 50.9402 79.8554 50.5377 79.8275C46.8826 79.5645 43.2275 79.3031 39.5741 79.0122C37.5288 78.8502 35.4886 78.6237 33.4451 78.4477C31.8666 78.3136 30.2847 78.2212 28.7063 78.0906C28.3962 78.0644 28.0773 77.9965 27.7899 77.8815C26.4031 77.3223 25.7742 76.2473 25.7672 74.7856C25.7567 72.2647 25.802 69.742 25.7254 67.2227C25.7045 66.5468 25.4902 65.7576 25.086 65.2349C23.3769 63.0328 22.1974 60.5641 21.2863 57.9682C20.403 55.4525 20.0284 52.7974 19.997 50.1545C19.957 46.8147 20.4117 43.5254 21.5563 40.3233C22.2758 38.311 23.2515 36.5026 24.5912 34.8806C24.6731 34.7813 24.7445 34.6838 24.8125 34.5845C24.8125 38.2187 24.8125 41.771 24.8125 45.4035C24.7306 45.7258 24.6574 46.0516 24.5999 46.3791H24.5982Z" fill="#4C5C68"/>
<path d="M49.2731 46.9995C46.4926 46.9995 44.2295 44.7382 44.2295 41.9559V26.1907C44.2295 23.9224 46.0762 22.0757 48.3446 22.0757C51.1251 22.0757 53.3882 24.3388 53.3882 27.1193V42.8845C53.3882 45.1528 51.5415 46.9995 49.2731 46.9995Z" fill="#FBFFFF"/>
<path d="M48.3441 23.9887C50.0706 23.9887 51.4748 25.3929 51.4748 27.1194V42.8845C51.4748 44.0779 50.4661 45.0866 49.2727 45.0866C47.5462 45.0866 46.142 43.6824 46.142 41.9559V26.1908C46.142 24.9974 47.1507 23.9887 48.3441 23.9887ZM48.3441 20.1646C45.0287 20.1646 42.3179 22.8771 42.3179 26.1908V41.9559C42.3179 45.7818 45.4469 48.9108 49.2727 48.9108C52.5881 48.9108 55.299 46.1982 55.299 42.8845V27.1194C55.299 23.2935 52.17 20.1646 48.3441 20.1646Z" fill="#4C5C68"/>
<path d="M39.8666 47.902C37.2359 47.902 35.0947 45.7608 35.0947 43.1301V27.4713C35.0947 25.344 36.8265 23.6123 38.9537 23.6123H39.4154C42.0461 23.6123 44.1872 25.7535 44.1872 28.3842V44.3026C44.1872 46.2887 42.5722 47.9037 40.5861 47.9037H39.8666V47.902Z" fill="#FBFFFF"/>
<path d="M39.4153 25.4903C41.0094 25.4903 42.3074 26.7883 42.3074 28.3824V44.3008C42.3074 45.2346 41.5181 46.0238 40.5843 46.0238H39.8648C38.2707 46.0238 36.9728 44.7259 36.9728 43.1318V27.4712C36.9728 26.398 37.8787 25.4921 38.9519 25.4921H39.4136M39.4153 21.7324H38.9536C35.7985 21.7324 33.2148 24.3144 33.2148 27.4712V43.1318C33.2148 46.7887 36.2079 49.7818 39.8648 49.7818H40.5843C43.5983 49.7818 46.0653 47.3148 46.0653 44.3008V28.3824C46.0653 24.7255 43.0722 21.7324 39.4153 21.7324Z" fill="#4C5C68"/>
<path d="M30.5707 49.0032C28.0166 49.0032 25.9399 46.9265 25.9399 44.3725V31.8321C25.9399 29.7659 27.6212 28.0864 29.6857 28.0864H30.3791C32.9331 28.0864 35.0098 30.1631 35.0098 32.7172V45.7244C35.0098 47.5328 33.5394 49.0032 31.731 49.0032H30.5707Z" fill="#FBFFFF"/>
<path d="M30.377 29.9104C31.924 29.9104 33.1836 31.17 33.1836 32.717V45.7243C33.1836 46.5135 32.5181 47.179 31.7289 47.179H30.5686C29.0215 47.179 27.7619 45.9194 27.7619 44.3723V31.832C27.7619 30.7902 28.6417 29.9104 29.6836 29.9104H30.377ZM30.377 26.2622H29.6836C26.6208 26.2622 24.1138 28.7692 24.1138 31.832V44.3723C24.1138 47.9229 27.018 50.8272 30.5686 50.8272H31.7289C34.5356 50.8272 36.8318 48.5309 36.8318 45.7243V32.717C36.8318 29.1664 33.9276 26.2622 30.377 26.2622Z" fill="#4C5C68"/>
<path d="M34.4971 53.3968C33.9867 55.153 33.7532 56.923 33.7602 58.6635C32.2967 56.0781 31.8333 52.9299 32.7271 49.8515C33.2445 48.0692 34.1591 46.5134 35.3438 45.2451C36.0407 46.0639 36.7637 46.8183 37.2951 47.672C36.0721 49.3584 35.1121 51.2818 34.4971 53.3986V53.3968Z" fill="#4C5C68"/>
<path d="M68.5398 60.7577C69.3095 60.7577 69.9335 60.1337 69.9335 59.364C69.9335 58.5942 69.3095 57.9702 68.5398 57.9702C67.77 57.9702 67.146 58.5942 67.146 59.364C67.146 60.1337 67.77 60.7577 68.5398 60.7577Z" fill="#4C5C68"/>
<path d="M59.4807 34.102C60.2504 34.102 60.8744 33.478 60.8744 32.7082C60.8744 31.9385 60.2504 31.3145 59.4807 31.3145C58.7109 31.3145 58.0869 31.9385 58.0869 32.7082C58.0869 33.478 58.7109 34.102 59.4807 34.102Z" fill="#4C5C68"/>
<path d="M65.7525 36.8897C66.7146 36.8897 67.4946 36.1097 67.4946 35.1475C67.4946 34.1853 66.7146 33.4053 65.7525 33.4053C64.7903 33.4053 64.0103 34.1853 64.0103 35.1475C64.0103 36.1097 64.7903 36.8897 65.7525 36.8897Z" fill="#4C5C68"/>
<path d="M66.2751 64.5173L62.9824 63.688L62.0939 60.4092L61.2071 63.7193L57.9126 64.6636L61.2071 65.4929L62.0939 68.7717L62.9824 65.4615L66.2751 64.5173Z" fill="#4C5C68"/>
<path d="M58.9839 77.0766C71.5434 74.5382 81 63.4387 81 50.1301C81 37.0149 71.8169 26.046 59.5292 23.3003" stroke="#4C5C68" stroke-width="4.01402" stroke-miterlimit="10" stroke-linecap="round"/>
</svg>
