<svg width="38" height="36" viewBox="0 0 38 36" fill="none" xmlns="http://www.w3.org/2000/svg">
<path d="M21.4614 32.6596C29.524 32.6596 36.06 26.1235 36.06 18.061C36.06 9.99836 29.524 3.46234 21.4614 3.46234C13.3988 3.46234 6.86279 9.99836 6.86279 18.061C6.86279 26.1235 13.3988 32.6596 21.4614 32.6596Z" fill="#F8D248"/>
<path d="M2.4834 14.6213L1.92676 21.4218L5.81272 28.0384L18.1008 28.3535L20.2013 24.2575L24.7174 19.8464L29.1285 19.1112L29.7586 19.0062L30.9139 17.1157L29.7586 15.4353L27.5531 13.4398H21.5666L2.4834 14.6213Z" fill="#FBFFFF"/>
<path d="M2.7752 15.8312C2.53994 17.1651 2.55464 18.5125 2.7752 19.8443C3.05561 21.5457 3.63431 23.1389 4.67932 24.5358C5.26431 25.3182 5.8325 26.1154 6.45215 26.8695C6.61179 27.0638 6.93317 27.2234 7.18524 27.2297C10.4999 27.3137 13.8145 27.3694 17.1291 27.4272C17.9136 27.4408 18.0166 27.32 18.1542 26.5302C18.2602 25.9242 18.34 25.292 18.5785 24.7343C19.3893 22.8386 20.6664 21.2957 22.268 19.9945C23.9894 18.5966 25.924 18.0546 28.1117 18.3214C28.4908 18.3676 28.8826 18.3708 29.2617 18.3267C29.6944 18.2762 29.8131 17.9381 29.8666 17.5432C30.0284 16.3564 29.1472 15.5288 28.3333 15.0708C26.9112 14.2706 25.3799 14.4659 23.8571 14.6654C23.5976 14.6991 23.3403 14.7516 23.0799 14.7789C22.2239 14.8671 21.3648 14.9364 20.512 15.0456C20.6874 14.1277 20.8785 13.215 21.1106 12.3181C21.2692 12.3213 21.3974 12.3234 21.5244 12.3139C22.6335 12.2288 23.7426 12.1333 24.8517 12.0482C26.9028 11.8907 28.8038 12.2362 30.4653 13.5732C32.2812 15.0351 32.8882 17.3405 32.0659 19.233C31.6248 20.2486 30.8297 20.8924 29.6282 20.8357C28.8952 20.8011 28.1621 20.7359 27.43 20.7444C26.9144 20.7507 26.3756 20.778 25.8914 20.9323C24.5628 21.3577 23.48 22.1759 22.5841 23.2345C21.5486 24.4591 20.763 25.8066 20.7346 27.465C20.6958 29.7356 20.6905 32.0063 20.6685 34.2759C20.6601 35.1634 20.1559 36.0487 19.1445 35.992C18.9009 35.9784 18.6551 36.012 18.4125 35.9952C16.2091 35.8366 14.0056 35.679 11.8032 35.5037C10.5702 35.406 9.34037 35.2694 8.10841 35.1634C7.15688 35.0825 6.20324 35.0268 5.25171 34.9481C5.06476 34.9323 4.87256 34.8914 4.69927 34.822C3.86326 34.4849 3.48412 33.8369 3.47992 32.9557C3.47362 31.436 3.50092 29.9152 3.45471 28.3965C3.44211 27.989 3.31293 27.5133 3.06927 27.1982C2.03896 25.8707 1.32794 24.3825 0.778652 22.8176C0.24617 21.301 0.0203642 19.7004 0.0014595 18.1072C-0.0226965 16.0938 0.251421 14.1109 0.941442 12.1805C1.3752 10.9675 1.96334 9.87731 2.77099 8.89952C2.82036 8.83966 2.86342 8.78084 2.90438 8.72098C2.90438 10.9118 2.90438 13.0533 2.90438 15.2431C2.85502 15.4374 2.8109 15.6338 2.77625 15.8312H2.7752Z" fill="#1E272E"/>
<path d="M17.6499 16.2051C15.9737 16.2051 14.6094 14.8419 14.6094 13.1646V3.66083C14.6094 2.29339 15.7226 1.18011 17.0901 1.18011C18.7663 1.18011 20.1306 2.5444 20.1306 4.22062V13.7244C20.1306 15.0919 19.0173 16.2051 17.6499 16.2051Z" fill="#FBFFFF"/>
<path d="M17.0904 2.3333C18.1312 2.3333 18.9777 3.17981 18.9777 4.22062V13.7244C18.9777 14.4439 18.3696 15.052 17.6502 15.052C16.6093 15.052 15.7628 14.2054 15.7628 13.1646V3.66083C15.7628 2.94141 16.3709 2.3333 17.0904 2.3333ZM17.0904 0.0279846C15.0917 0.0279846 13.4575 1.66324 13.4575 3.66083V13.1646C13.4575 15.471 15.3438 17.3573 17.6502 17.3573C19.6488 17.3573 21.283 15.722 21.283 13.7244V4.22062C21.283 1.91425 19.3967 0.0279846 17.0904 0.0279846Z" fill="#1E272E"/>
<path d="M11.9797 16.7492C10.3938 16.7492 9.10303 15.4584 9.10303 13.8725V4.43277C9.10303 3.1504 10.147 2.10645 11.4294 2.10645H11.7077C13.2936 2.10645 14.5843 3.39721 14.5843 4.98311V14.5793C14.5843 15.7766 13.6107 16.7502 12.4134 16.7502H11.9797V16.7492Z" fill="#FBFFFF"/>
<path d="M11.7076 3.23862C12.6686 3.23862 13.451 4.02106 13.451 4.98205V14.5783C13.451 15.1412 12.9753 15.617 12.4123 15.617H11.9786C11.0176 15.617 10.2351 14.8345 10.2351 13.8735V4.43276C10.2351 3.7858 10.7813 3.23967 11.4282 3.23967H11.7066M11.7076 0.973206H11.4293C9.52726 0.973206 7.96973 2.52969 7.96973 4.43276V13.8735C7.96973 16.078 9.77407 17.8824 11.9786 17.8824H12.4123C14.2293 17.8824 15.7164 16.3952 15.7164 14.5783V4.98205C15.7164 2.77755 13.9121 0.973206 11.7076 0.973206Z" fill="#1E272E"/>
<path d="M6.37558 17.4129C4.83589 17.4129 3.58398 16.161 3.58398 14.6214V7.06159C3.58398 5.81598 4.59749 4.80353 5.84204 4.80353H6.26005C7.79973 4.80353 9.05164 6.05544 9.05164 7.59512V15.4364C9.05164 16.5265 8.16522 17.4129 7.07505 17.4129H6.37558Z" fill="#FBFFFF"/>
<path d="M6.25908 5.90313C7.19171 5.90313 7.95105 6.66247 7.95105 7.5951V15.4363C7.95105 15.9121 7.54985 16.3133 7.07408 16.3133H6.37461C5.44198 16.3133 4.68264 15.554 4.68264 14.6213V7.06157C4.68264 6.43351 5.21302 5.90313 5.84108 5.90313H6.25908ZM6.25908 3.70389H5.84108C3.99472 3.70389 2.4834 5.21521 2.4834 7.06157V14.6213C2.4834 16.7618 4.23418 18.5126 6.37461 18.5126H7.07408C8.76605 18.5126 10.1503 17.1283 10.1503 15.4363V7.5951C10.1503 5.45467 8.39951 3.70389 6.25908 3.70389Z" fill="#1E272E"/>
<path d="M8.74277 20.0617C8.43504 21.1203 8.29431 22.1874 8.29851 23.2366C7.41629 21.678 7.13692 19.7802 7.67571 17.9244C7.98763 16.85 8.53902 15.9121 9.2532 15.1475C9.6733 15.6411 10.1092 16.0959 10.4295 16.6105C9.69221 17.6272 9.11351 18.7867 8.74277 20.0627V20.0617Z" fill="#1E272E"/>
<path d="M29.265 24.499C29.729 24.499 30.1052 24.1229 30.1052 23.6588C30.1052 23.1948 29.729 22.8186 29.265 22.8186C28.801 22.8186 28.4248 23.1948 28.4248 23.6588C28.4248 24.1229 28.801 24.499 29.265 24.499Z" fill="#1E272E"/>
<path d="M23.8036 8.43005C24.2676 8.43005 24.6438 8.05388 24.6438 7.58984C24.6438 7.12581 24.2676 6.74963 23.8036 6.74963C23.3396 6.74963 22.9634 7.12581 22.9634 7.58984C22.9634 8.05388 23.3396 8.43005 23.8036 8.43005Z" fill="#1E272E"/>
<path d="M27.5844 10.1105C28.1645 10.1105 28.6347 9.64025 28.6347 9.06021C28.6347 8.48017 28.1645 8.00995 27.5844 8.00995C27.0044 8.00995 26.5342 8.48017 26.5342 9.06021C26.5342 9.64025 27.0044 10.1105 27.5844 10.1105Z" fill="#1E272E"/>
<path d="M27.8996 26.7655L25.9147 26.2656L25.379 24.289L24.8444 26.2845L22.8584 26.8537L24.8444 27.3536L25.379 29.3302L25.9147 27.3347L27.8996 26.7655Z" fill="#1E272E"/>
<path d="M23.5044 34.3368C31.0757 32.8066 36.7765 26.1154 36.7765 18.0925C36.7765 10.1861 31.2406 3.57367 23.8331 1.91846" stroke="#1E272E" stroke-width="2.4198" stroke-miterlimit="10" stroke-linecap="round"/>
</svg>
