<svg width="436" height="116" viewBox="0 0 436 116" fill="none" xmlns="http://www.w3.org/2000/svg">
<path d="M426.782 90.1104C421.693 90.1104 419.148 87.4445 419.148 82.1125V39.699C419.148 34.3671 421.693 31.7011 426.782 31.7011C431.872 31.7011 434.417 34.3671 434.417 39.699V82.1125C434.417 87.4445 431.872 90.1104 426.782 90.1104ZM426.661 22.976C424.076 22.976 421.854 22.047 419.996 20.1889C418.219 18.3307 417.33 16.1091 417.33 13.5239C417.33 10.9387 418.219 8.75743 419.996 6.9801C421.854 5.12199 424.076 4.19293 426.661 4.19293C429.246 4.19293 431.428 5.12199 433.205 6.9801C435.063 8.75743 435.992 10.9387 435.992 13.5239C435.992 16.1091 435.063 18.3307 433.205 20.1889C431.428 22.047 429.246 22.976 426.661 22.976Z" fill="#1E272E"/>
<path d="M382.211 90.1104C377.121 90.1104 374.576 87.4444 374.576 82.1125V39.699C374.576 34.3671 377.242 31.7011 382.574 31.7011C384.271 31.7011 385.806 32.1454 387.179 33.0341C388.552 33.8419 389.239 35.4173 389.239 37.7601V39.5778C390.693 36.7503 392.915 34.4882 395.904 32.7917C398.893 31.0952 402.044 30.2469 405.356 30.2469C407.941 30.2469 409.921 31.0548 411.294 32.6705C412.667 34.2055 413.354 36.1848 413.354 38.6084C413.354 40.8704 412.748 42.567 411.536 43.698C410.325 44.7482 409.032 45.1926 407.659 45.031C407.012 44.9502 406.285 44.9098 405.477 44.9098C404.75 44.829 403.942 44.7886 403.054 44.7886C399.338 44.7886 396.187 46.0005 393.602 48.4241C391.097 50.7669 389.845 54.2408 389.845 58.8457V82.1125C389.845 87.4444 387.3 90.1104 382.211 90.1104Z" fill="#1E272E"/>
<path d="M344.016 91.4434C338.603 91.4434 333.715 90.1912 329.353 87.6868C325.071 85.1824 321.678 81.6277 319.174 77.0229C316.75 72.418 315.538 67.0456 315.538 60.9057C315.538 54.6851 316.75 49.3127 319.174 44.7886C321.678 40.1838 325.071 36.6291 329.353 34.1247C333.715 31.5395 338.603 30.2469 344.016 30.2469C350.721 30.2469 356.497 32.105 361.345 35.8212C363.526 37.437 364.495 39.2547 364.253 41.2744C364.091 43.2941 363.041 44.9906 361.102 46.364C359.163 47.7374 357.467 48.3433 356.013 48.1817C354.639 48.0201 352.822 47.2123 350.559 45.7581C348.701 44.6271 346.52 44.0616 344.016 44.0616C340.138 44.0616 336.987 45.5157 334.564 48.4241C332.221 51.2516 331.049 55.4122 331.049 60.9057C331.049 66.3185 332.221 70.4791 334.564 73.3874C336.987 76.215 340.138 77.6288 344.016 77.6288C346.439 77.6288 348.54 77.144 350.317 76.1746C352.418 74.882 354.235 74.0741 355.77 73.751C357.305 73.347 359.042 73.8317 360.981 75.2051C362.92 76.6593 364.011 78.3558 364.253 80.2947C364.576 82.2336 363.728 84.011 361.708 85.6267C356.861 89.5045 350.963 91.4434 344.016 91.4434Z" fill="#1E272E"/>
<path d="M287.434 91.3223C284.041 91.3223 280.729 90.9183 277.498 90.1105C274.347 89.3834 271.358 88.1312 268.53 86.3538C266.268 84.8997 265.056 83.2435 264.895 81.3854C264.733 79.4465 265.42 77.6288 266.955 75.9322C268.49 74.3165 270.065 73.549 271.681 73.6298C273.377 73.6298 275.357 74.2761 277.619 75.5687C280.769 77.2652 284.324 78.1135 288.283 78.1135C291.353 78.1135 293.493 77.75 294.705 77.0229C295.917 76.215 296.523 74.7608 296.523 72.6604C296.523 71.7717 296.2 71.0042 295.554 70.3579C294.988 69.6308 293.736 68.9845 291.797 68.419C289.939 67.7727 287.111 67.086 283.314 66.3589C277.417 65.2279 272.852 63.289 269.621 60.5422C266.47 57.7954 264.895 53.6753 264.895 48.1817C264.895 44.5463 265.864 41.3956 267.803 38.7296C269.742 35.9828 272.368 33.8823 275.68 32.4282C279.073 30.8932 282.87 30.1257 287.071 30.1257C292.807 30.1257 297.977 31.176 302.582 33.2764C305.006 34.4883 306.379 36.0232 306.702 37.8813C307.106 39.7394 306.621 41.5572 305.248 43.3345C303.875 45.1118 302.34 46.0409 300.643 46.1217C299.027 46.1217 297.048 45.6773 294.705 44.7887C293.493 44.3039 292.282 43.9808 291.07 43.8192C289.858 43.5769 288.606 43.4557 287.313 43.4557C284.647 43.4557 282.829 43.9 281.86 44.7887C280.891 45.5965 280.406 46.566 280.406 47.697C280.406 48.5049 280.648 49.232 281.133 49.8783C281.618 50.5246 282.668 51.1709 284.284 51.8172C285.899 52.3827 288.404 53.0694 291.797 53.8773C298.502 55.4122 303.551 57.7551 306.945 60.9058C310.418 63.9757 312.155 68.0959 312.155 73.2663C312.155 79.3253 309.813 83.8494 305.127 86.8386C300.522 89.8277 294.624 91.3223 287.434 91.3223Z" fill="#1E272E"/>
<path d="M226.064 91.4434C220.005 91.4434 215.036 89.5045 211.158 85.6267C207.361 81.7489 205.463 76.013 205.463 68.419V39.699C205.463 34.367 208.008 31.701 213.097 31.701C218.187 31.701 220.732 34.367 220.732 39.699V64.7835C220.732 68.9845 221.58 72.1756 223.277 74.3569C224.973 76.5381 227.195 77.6287 229.942 77.6287C233.011 77.6287 235.516 76.5381 237.455 74.3569C239.474 72.0948 240.484 68.5805 240.484 63.8141V39.699C240.484 34.367 243.029 31.701 248.119 31.701C253.208 31.701 255.753 34.367 255.753 39.699V82.1125C255.753 87.4444 253.491 90.1104 248.967 90.1104C244.443 90.1104 242.06 89.0198 241.817 86.8385L241.333 83.5666C239.798 85.5863 237.737 87.404 235.152 89.0198C232.648 90.6355 229.618 91.4434 226.064 91.4434Z" fill="#1E272E"/>
<path d="M175.299 91.3223C171.906 91.3223 168.594 90.9183 165.362 90.1105C162.212 89.3834 159.222 88.1312 156.395 86.3538C154.133 84.8997 152.921 83.2435 152.759 81.3854C152.598 79.4465 153.285 77.6288 154.819 75.9322C156.354 74.3165 157.93 73.549 159.546 73.6298C161.242 73.6298 163.221 74.2761 165.483 75.5687C168.634 77.2652 172.189 78.1135 176.147 78.1135C179.217 78.1135 181.358 77.75 182.57 77.0229C183.782 76.215 184.388 74.7608 184.388 72.6604C184.388 71.7717 184.065 71.0042 183.418 70.3579C182.853 69.6308 181.601 68.9845 179.662 68.419C177.804 67.7727 174.976 67.086 171.179 66.3589C165.281 65.2279 160.717 63.289 157.485 60.5422C154.335 57.7954 152.759 53.6753 152.759 48.1817C152.759 44.5463 153.729 41.3956 155.668 38.7296C157.607 35.9828 160.232 33.8823 163.545 32.4282C166.938 30.8932 170.735 30.1257 174.936 30.1257C180.671 30.1257 185.842 31.176 190.447 33.2764C192.87 34.4883 194.244 36.0232 194.567 37.8813C194.971 39.7394 194.486 41.5572 193.113 43.3345C191.739 45.1118 190.204 46.0409 188.508 46.1217C186.892 46.1217 184.913 45.6773 182.57 44.7887C181.358 44.3039 180.146 43.9808 178.935 43.8192C177.723 43.5769 176.471 43.4557 175.178 43.4557C172.512 43.4557 170.694 43.9 169.725 44.7887C168.755 45.5965 168.271 46.566 168.271 47.697C168.271 48.5049 168.513 49.232 168.998 49.8783C169.482 50.5246 170.533 51.1709 172.148 51.8172C173.764 52.3827 176.269 53.0694 179.662 53.8773C186.367 55.4122 191.416 57.7551 194.809 60.9058C198.283 63.9757 200.02 68.0959 200.02 73.2663C200.02 79.3253 197.677 83.8494 192.992 86.8386C188.387 89.8277 182.489 91.3223 175.299 91.3223Z" fill="#1E272E"/>
<path d="M68.6765 104.421C94.4768 104.421 115.392 83.5058 115.392 57.7055C115.392 31.9052 94.4768 10.9899 68.6765 10.9899C42.8762 10.9899 21.9609 31.9052 21.9609 57.7055C21.9609 83.5058 42.8762 104.421 68.6765 104.421Z" fill="#F8D248"/>
<path d="M7.94628 46.6987L6.16504 68.4601L18.6001 89.6333L57.9218 90.6416L64.6435 77.5344L79.0951 63.4189L93.2106 61.0663L95.2271 60.7302L98.924 54.6807L95.2271 49.3034L88.1693 42.9178H69.0126L7.94628 46.6987Z" fill="#FBFFFF"/>
<path d="M8.88063 50.5705C8.1278 54.8387 8.17485 59.1507 8.88063 63.4122C9.77797 68.8567 11.6298 73.9551 14.9738 78.425C16.8458 80.9289 18.664 83.4797 20.6469 85.8928C21.1577 86.5146 22.1862 87.0254 22.9928 87.0456C33.5995 87.3144 44.2063 87.4926 54.8131 87.6774C57.3236 87.7211 57.653 87.3346 58.0933 84.8072C58.4327 82.868 58.6881 80.8448 59.4511 79.0602C62.0456 72.9939 66.1324 68.0569 71.2577 63.8928C76.7661 59.4195 82.9567 57.6853 89.9573 58.539C91.1706 58.6869 92.4242 58.6969 93.6374 58.5558C95.0221 58.3945 95.4019 57.3123 95.5733 56.0486C96.0908 52.2509 93.2711 49.6025 90.6665 48.1372C86.1159 45.5763 81.2158 46.2014 76.3426 46.8399C75.5125 46.9475 74.6891 47.1155 73.8556 47.2029C71.1165 47.4852 68.3673 47.707 65.6383 48.0566C66.1996 45.1192 66.8113 42.1986 67.554 39.3285C68.0615 39.3386 68.4715 39.3453 68.8782 39.315C72.4272 39.0428 75.9763 38.737 79.5253 38.4647C86.089 37.9606 92.1721 39.0663 97.489 43.3447C103.3 48.0229 105.242 55.4 102.611 61.4562C101.199 64.7061 98.6552 66.7663 94.8104 66.5848C92.4645 66.4739 90.1187 66.2655 87.7762 66.2924C86.126 66.3126 84.4019 66.4 82.8525 66.894C78.6011 68.2551 75.1361 70.8732 72.2693 74.261C68.9555 78.1797 66.4416 82.4916 66.3508 87.7984C66.2265 95.0645 66.2097 102.331 66.1391 109.593C66.1122 112.433 64.499 115.266 61.2625 115.085C60.4828 115.041 59.6964 115.149 58.92 115.095C51.869 114.588 44.818 114.083 37.7703 113.522C33.8247 113.21 29.8892 112.773 25.9469 112.433C22.902 112.174 19.8504 111.996 16.8055 111.744C16.2072 111.694 15.5922 111.563 15.0377 111.341C12.3624 110.262 11.1492 108.189 11.1357 105.369C11.1156 100.506 11.203 95.6392 11.0551 90.7794C11.0148 89.4754 10.6014 87.953 9.82166 86.9447C6.52468 82.6967 4.2494 77.9343 2.49169 72.9267C0.787744 68.0737 0.0651654 62.9518 0.00467041 57.8534C-0.0726287 51.4107 0.804548 45.0654 3.01261 38.8882C4.40064 35.0064 6.2827 31.5179 8.86718 28.389C9.02514 28.1974 9.16294 28.0092 9.29401 27.8176C9.29401 34.8283 9.29401 41.6811 9.29401 48.6884C9.13605 49.3101 8.99489 49.9386 8.88399 50.5705H8.88063Z" fill="#1E272E"/>
<path d="M56.4801 51.7669C51.1162 51.7669 46.7505 47.4045 46.7505 42.0373V11.6251C46.7505 7.24931 50.313 3.68683 54.6888 3.68683C60.0527 3.68683 64.4184 8.05255 64.4184 13.4164V43.8286C64.4184 48.2044 60.8559 51.7669 56.4801 51.7669Z" fill="#FBFFFF"/>
<path d="M54.6886 7.37703C58.0192 7.37703 60.728 10.0859 60.728 13.4164V43.8286C60.728 46.1308 58.7821 48.0767 56.4799 48.0767C53.1493 48.0767 50.4405 45.3679 50.4405 42.0373V11.6251C50.4405 9.32295 52.3864 7.37703 54.6886 7.37703ZM54.6886 0C48.2929 0 43.0635 5.23281 43.0635 11.6251V42.0373C43.0635 49.4177 49.0995 55.4537 56.4799 55.4537C62.8756 55.4537 68.105 50.2209 68.105 43.8286V13.4164C68.105 6.03605 62.069 0 54.6886 0Z" fill="#1E272E"/>
<path d="M38.3347 53.5078C33.2599 53.5078 29.1294 49.3773 29.1294 44.3025V14.0953C29.1294 9.99173 32.4701 6.65106 36.5736 6.65106H37.4643C42.5391 6.65106 46.6696 10.7815 46.6696 15.8564V46.5643C46.6696 50.3956 43.5541 53.5111 39.7227 53.5111H38.3347V53.5078Z" fill="#FBFFFF"/>
<path d="M37.4646 10.274C40.5398 10.274 43.0436 12.7779 43.0436 15.853V46.5609C43.0436 48.3623 41.5211 49.8848 39.7197 49.8848H38.3317C35.2566 49.8848 32.7527 47.381 32.7527 44.3058V14.0953C32.7527 12.025 34.5004 10.2774 36.5706 10.2774H37.4613M37.4646 3.02472H36.574C30.4875 3.02472 25.5034 8.00547 25.5034 14.0953V44.3058C25.5034 51.3602 31.2773 57.1341 38.3317 57.1341H39.7197C45.534 57.1341 50.2929 52.3752 50.2929 46.5609V15.853C50.2929 8.79863 44.519 3.02472 37.4646 3.02472Z" fill="#1E272E"/>
<path d="M20.4018 55.6319C15.4749 55.6319 11.4688 51.6258 11.4688 46.6988V22.5075C11.4688 18.5216 14.712 15.2817 18.6945 15.2817H20.0321C24.9591 15.2817 28.9652 19.2878 28.9652 24.2148V49.3068C28.9652 52.7953 26.1287 55.6319 22.6402 55.6319H20.4018Z" fill="#FBFFFF"/>
<path d="M20.0285 18.8005C23.0129 18.8005 25.4428 21.2304 25.4428 24.2148V49.3068C25.4428 50.8292 24.1589 52.1131 22.6365 52.1131H20.3982C17.4138 52.1131 14.9839 49.6832 14.9839 46.6988V22.5075C14.9839 20.4977 16.6811 18.8005 18.6909 18.8005H20.0285ZM20.0285 11.7629H18.6909C12.7825 11.7629 7.94629 16.5992 7.94629 22.5075V46.6988C7.94629 53.5482 13.5488 59.1507 20.3982 59.1507H22.6365C28.0508 59.1507 32.4804 54.7211 32.4804 49.3068V24.2148C32.4804 17.3654 26.8779 11.7629 20.0285 11.7629Z" fill="#1E272E"/>
<path d="M27.9771 64.1078C26.9923 67.4956 26.542 70.9102 26.5554 74.2676C23.7323 69.2802 22.8384 63.2071 24.5625 57.2685C25.5606 53.8304 27.3251 50.8292 29.6104 48.3825C30.9548 49.9621 32.3495 51.4173 33.3746 53.0641C31.0153 56.3174 29.1634 60.0278 27.9771 64.1112V64.1078Z" fill="#1E272E"/>
<path d="M93.6476 78.3074C95.1326 78.3074 96.3363 77.1036 96.3363 75.6187C96.3363 74.1338 95.1326 72.9301 93.6476 72.9301C92.1627 72.9301 90.959 74.1338 90.959 75.6187C90.959 77.1036 92.1627 78.3074 93.6476 78.3074Z" fill="#1E272E"/>
<path d="M76.1711 26.8867C77.656 26.8867 78.8598 25.6829 78.8598 24.198C78.8598 22.7131 77.656 21.5093 76.1711 21.5093C74.6862 21.5093 73.4824 22.7131 73.4824 24.198C73.4824 25.6829 74.6862 26.8867 76.1711 26.8867Z" fill="#1E272E"/>
<path d="M88.27 32.264C90.1262 32.264 91.6308 30.7593 91.6308 28.9031C91.6308 27.047 90.1262 25.5423 88.27 25.5423C86.4139 25.5423 84.9092 27.047 84.9092 28.9031C84.9092 30.7593 86.4139 32.264 88.27 32.264Z" fill="#1E272E"/>
<path d="M89.2785 85.56L82.9265 83.9603L81.2125 77.6352L79.5018 84.0208L73.1465 85.8423L79.5018 87.4421L81.2125 93.7672L82.9265 87.3816L89.2785 85.56Z" fill="#1E272E"/>
<path d="M75.2134 109.788C99.4416 104.892 117.684 83.4797 117.684 57.8063C117.684 32.506 99.9693 11.3462 76.2653 6.0495" stroke="#1E272E" stroke-width="7.74336" stroke-miterlimit="10" stroke-linecap="round"/>
</svg>
